<mxfile host="app.diagrams.net" modified="2020-10-12T10:44:37.715Z" agent="5.0 (Windows NT 10.0; Win64; x64) AppleWebKit/537.36 (KHTML, like Gecko) Chrome/87.0.4272.0 Safari/537.36 Edg/87.0.654.0" etag="Fdzi6wrJXBsMwWRsE7oj" version="13.7.9" type="github">
  <diagram name="Page-1" id="822b0af5-4adb-64df-f703-e8dfc1f81529">
    <mxGraphModel dx="1673" dy="934" grid="0" gridSize="10" guides="1" tooltips="1" connect="1" arrows="1" fold="1" page="1" pageScale="1" pageWidth="1100" pageHeight="850" background="#ffffff" math="0" shadow="0">
      <root>
        <mxCell id="0" />
        <mxCell id="1" parent="0" />
        <mxCell id="Tbsx-RKo1DydP4l0b-6E-33" value="" style="curved=1;endArrow=classic;html=1;exitX=0.5;exitY=0;exitDx=0;exitDy=0;fillColor=#fff2cc;strokeColor=#d6b656;strokeWidth=12;" edge="1" parent="1" source="Tbsx-RKo1DydP4l0b-6E-23" target="Tbsx-RKo1DydP4l0b-6E-6">
          <mxGeometry width="50" height="50" relative="1" as="geometry">
            <mxPoint x="800" y="350" as="sourcePoint" />
            <mxPoint x="850" y="300" as="targetPoint" />
            <Array as="points">
              <mxPoint x="270" y="300" />
            </Array>
          </mxGeometry>
        </mxCell>
        <mxCell id="Tbsx-RKo1DydP4l0b-6E-10" value="Internal Lab" style="ellipse;shape=cloud;whiteSpace=wrap;html=1;fontSize=18;" vertex="1" parent="1">
          <mxGeometry x="701" y="230" width="370" height="260" as="geometry" />
        </mxCell>
        <mxCell id="Tbsx-RKo1DydP4l0b-6E-6" value="Terminal server &lt;br&gt;gateway" style="verticalLabelPosition=bottom;aspect=fixed;html=1;verticalAlign=top;strokeColor=none;align=center;outlineConnect=0;shape=mxgraph.citrix.license_server;fontSize=18;" vertex="1" parent="1">
          <mxGeometry x="568" y="315" width="65" height="85" as="geometry" />
        </mxCell>
        <mxCell id="Tbsx-RKo1DydP4l0b-6E-7" value="" style="verticalLabelPosition=bottom;aspect=fixed;html=1;verticalAlign=top;strokeColor=none;align=center;outlineConnect=0;shape=mxgraph.citrix.database_server;" vertex="1" parent="1">
          <mxGeometry x="815" y="278.75" width="50" height="56.25" as="geometry" />
        </mxCell>
        <mxCell id="Tbsx-RKo1DydP4l0b-6E-8" value="" style="verticalLabelPosition=bottom;aspect=fixed;html=1;verticalAlign=top;strokeColor=none;align=center;outlineConnect=0;shape=mxgraph.citrix.database_server;" vertex="1" parent="1">
          <mxGeometry x="949" y="320.5" width="60" height="67.5" as="geometry" />
        </mxCell>
        <mxCell id="Tbsx-RKo1DydP4l0b-6E-9" value="" style="verticalLabelPosition=bottom;aspect=fixed;html=1;verticalAlign=top;strokeColor=none;align=center;outlineConnect=0;shape=mxgraph.citrix.database_server;" vertex="1" parent="1">
          <mxGeometry x="838" y="388" width="65" height="73.13" as="geometry" />
        </mxCell>
        <mxCell id="Tbsx-RKo1DydP4l0b-6E-20" value="" style="shape=flexArrow;endArrow=classic;html=1;fillColor=#dae8fc;strokeColor=#6c8ebf;" edge="1" parent="1" source="Tbsx-RKo1DydP4l0b-6E-38">
          <mxGeometry width="50" height="50" relative="1" as="geometry">
            <mxPoint x="980" y="500" as="sourcePoint" />
            <mxPoint x="822" y="360" as="targetPoint" />
          </mxGeometry>
        </mxCell>
        <mxCell id="Tbsx-RKo1DydP4l0b-6E-25" value="" style="group" vertex="1" connectable="0" parent="1">
          <mxGeometry x="110" y="90" width="254" height="168.38" as="geometry" />
        </mxCell>
        <mxCell id="Tbsx-RKo1DydP4l0b-6E-24" value="" style="ellipse;whiteSpace=wrap;html=1;" vertex="1" parent="Tbsx-RKo1DydP4l0b-6E-25">
          <mxGeometry width="254" height="168.38" as="geometry" />
        </mxCell>
        <mxCell id="Tbsx-RKo1DydP4l0b-6E-4" value="" style="verticalLabelPosition=bottom;aspect=fixed;html=1;verticalAlign=top;strokeColor=none;align=center;outlineConnect=0;shape=mxgraph.citrix.laptop_1;" vertex="1" parent="Tbsx-RKo1DydP4l0b-6E-25">
          <mxGeometry x="71" y="87.5" width="67.36" height="57" as="geometry" />
        </mxCell>
        <mxCell id="Tbsx-RKo1DydP4l0b-6E-5" value="" style="verticalLabelPosition=bottom;aspect=fixed;html=1;verticalAlign=top;strokeColor=none;align=center;outlineConnect=0;shape=mxgraph.citrix.laptop_1;" vertex="1" parent="Tbsx-RKo1DydP4l0b-6E-25">
          <mxGeometry x="131" y="47.5" width="61.45" height="52" as="geometry" />
        </mxCell>
        <mxCell id="Tbsx-RKo1DydP4l0b-6E-22" value="" style="verticalLabelPosition=bottom;aspect=fixed;html=1;verticalAlign=top;strokeColor=none;align=center;outlineConnect=0;shape=mxgraph.citrix.laptop_1;" vertex="1" parent="Tbsx-RKo1DydP4l0b-6E-25">
          <mxGeometry x="75" y="37.5" width="51" height="43.15" as="geometry" />
        </mxCell>
        <mxCell id="Tbsx-RKo1DydP4l0b-6E-26" value="" style="group" vertex="1" connectable="0" parent="1">
          <mxGeometry x="130" y="450" width="254" height="168.38" as="geometry" />
        </mxCell>
        <mxCell id="Tbsx-RKo1DydP4l0b-6E-23" value="" style="ellipse;whiteSpace=wrap;html=1;" vertex="1" parent="Tbsx-RKo1DydP4l0b-6E-26">
          <mxGeometry width="254" height="168.38" as="geometry" />
        </mxCell>
        <mxCell id="Tbsx-RKo1DydP4l0b-6E-1" value="" style="verticalLabelPosition=bottom;aspect=fixed;html=1;verticalAlign=top;strokeColor=none;align=center;outlineConnect=0;shape=mxgraph.citrix.laptop_1;" vertex="1" parent="Tbsx-RKo1DydP4l0b-6E-26">
          <mxGeometry x="83" y="101.53" width="61" height="51.62" as="geometry" />
        </mxCell>
        <mxCell id="Tbsx-RKo1DydP4l0b-6E-2" value="" style="verticalLabelPosition=bottom;aspect=fixed;html=1;verticalAlign=top;strokeColor=none;align=center;outlineConnect=0;shape=mxgraph.citrix.laptop_1;" vertex="1" parent="Tbsx-RKo1DydP4l0b-6E-26">
          <mxGeometry x="124" y="49.910000000000004" width="61" height="51.62" as="geometry" />
        </mxCell>
        <mxCell id="Tbsx-RKo1DydP4l0b-6E-3" value="" style="verticalLabelPosition=bottom;aspect=fixed;html=1;verticalAlign=top;strokeColor=none;align=center;outlineConnect=0;shape=mxgraph.citrix.laptop_1;" vertex="1" parent="Tbsx-RKo1DydP4l0b-6E-26">
          <mxGeometry x="54" y="54.14000000000001" width="51" height="43.15" as="geometry" />
        </mxCell>
        <mxCell id="Tbsx-RKo1DydP4l0b-6E-31" value="" style="shape=image;html=1;verticalAlign=top;verticalLabelPosition=bottom;labelBackgroundColor=#ffffff;imageAspect=0;aspect=fixed;image=https://cdn3.iconfinder.com/data/icons/49handdrawing/128x128/earth.png" vertex="1" parent="1">
          <mxGeometry x="350" y="257" width="168" height="168" as="geometry" />
        </mxCell>
        <mxCell id="Tbsx-RKo1DydP4l0b-6E-34" value="" style="curved=1;endArrow=classic;html=1;exitX=0.5;exitY=1;exitDx=0;exitDy=0;strokeWidth=11;fillColor=#d5e8d4;strokeColor=#82b366;" edge="1" parent="1" source="Tbsx-RKo1DydP4l0b-6E-24" target="Tbsx-RKo1DydP4l0b-6E-6">
          <mxGeometry width="50" height="50" relative="1" as="geometry">
            <mxPoint x="267" y="460" as="sourcePoint" />
            <mxPoint x="600" y="364.4680851063829" as="targetPoint" />
            <Array as="points">
              <mxPoint x="280" y="310" />
            </Array>
          </mxGeometry>
        </mxCell>
        <mxCell id="Tbsx-RKo1DydP4l0b-6E-35" value="" style="verticalLabelPosition=bottom;aspect=fixed;html=1;verticalAlign=top;strokeColor=none;align=center;outlineConnect=0;shape=mxgraph.citrix.directory_server;" vertex="1" parent="1">
          <mxGeometry x="566" y="137" width="65" height="88.5" as="geometry" />
        </mxCell>
        <mxCell id="Tbsx-RKo1DydP4l0b-6E-39" value="Certificated by Global IT" style="shape=image;html=1;verticalAlign=top;verticalLabelPosition=bottom;labelBackgroundColor=#ffffff;imageAspect=0;aspect=fixed;image=https://cdn2.iconfinder.com/data/icons/essential-web-2/50/verified-check-secured-legal-certified-128.png;fontSize=17;" vertex="1" parent="1">
          <mxGeometry x="583" y="230.75" width="48" height="48" as="geometry" />
        </mxCell>
        <mxCell id="Tbsx-RKo1DydP4l0b-6E-40" value="Authenticated by Global Philips IT&amp;nbsp;" style="text;html=1;strokeColor=none;fillColor=none;align=center;verticalAlign=middle;whiteSpace=wrap;rounded=0;fontSize=18;" vertex="1" parent="1">
          <mxGeometry x="538" y="104" width="140" height="20" as="geometry" />
        </mxCell>
        <mxCell id="Tbsx-RKo1DydP4l0b-6E-38" value="" style="aspect=fixed;perimeter=ellipsePerimeter;html=1;align=center;shadow=0;dashed=0;spacingTop=3;image;image=img/lib/active_directory/firewall.svg;" vertex="1" parent="1">
          <mxGeometry x="680" y="335" width="30.5" height="50" as="geometry" />
        </mxCell>
        <mxCell id="Tbsx-RKo1DydP4l0b-6E-41" value="" style="shape=flexArrow;endArrow=classic;html=1;entryX=0.378;entryY=0.5;entryDx=0;entryDy=0;entryPerimeter=0;fillColor=#dae8fc;strokeColor=#6c8ebf;" edge="1" parent="1" source="Tbsx-RKo1DydP4l0b-6E-6" target="Tbsx-RKo1DydP4l0b-6E-38">
          <mxGeometry width="50" height="50" relative="1" as="geometry">
            <mxPoint x="655" y="360" as="sourcePoint" />
            <mxPoint x="830.8600000000001" y="360" as="targetPoint" />
          </mxGeometry>
        </mxCell>
        <mxCell id="Tbsx-RKo1DydP4l0b-6E-42" value="Secured by IT" style="text;html=1;strokeColor=none;fillColor=none;align=center;verticalAlign=middle;whiteSpace=wrap;rounded=0;fontSize=18;" vertex="1" parent="1">
          <mxGeometry x="675.25" y="394" width="40" height="20" as="geometry" />
        </mxCell>
        <mxCell id="Tbsx-RKo1DydP4l0b-6E-43" value="Service consumers can access from around the globe" style="text;html=1;strokeColor=none;fillColor=none;align=center;verticalAlign=middle;whiteSpace=wrap;rounded=0;fontSize=17;" vertex="1" parent="1">
          <mxGeometry x="130" y="331" width="150" height="20" as="geometry" />
        </mxCell>
        <mxCell id="Tbsx-RKo1DydP4l0b-6E-50" value="" style="group" vertex="1" connectable="0" parent="1">
          <mxGeometry x="701" y="55" width="263" height="154" as="geometry" />
        </mxCell>
        <mxCell id="Tbsx-RKo1DydP4l0b-6E-49" value="" style="shape=callout;whiteSpace=wrap;html=1;perimeter=calloutPerimeter;fontSize=18;position2=0;size=38;position=0.09;base=74;" vertex="1" parent="Tbsx-RKo1DydP4l0b-6E-50">
          <mxGeometry width="263" height="154" as="geometry" />
        </mxCell>
        <mxCell id="Tbsx-RKo1DydP4l0b-6E-45" value="" style="shape=actor;whiteSpace=wrap;html=1;fontSize=18;" vertex="1" parent="Tbsx-RKo1DydP4l0b-6E-50">
          <mxGeometry x="121" y="10" width="20" height="29" as="geometry" />
        </mxCell>
        <mxCell id="Tbsx-RKo1DydP4l0b-6E-46" value="" style="shape=actor;whiteSpace=wrap;html=1;fontSize=18;" vertex="1" parent="Tbsx-RKo1DydP4l0b-6E-50">
          <mxGeometry x="131" y="20" width="20" height="29" as="geometry" />
        </mxCell>
        <mxCell id="Tbsx-RKo1DydP4l0b-6E-47" value="" style="shape=actor;whiteSpace=wrap;html=1;fontSize=18;" vertex="1" parent="Tbsx-RKo1DydP4l0b-6E-50">
          <mxGeometry x="111" y="20" width="20" height="29" as="geometry" />
        </mxCell>
        <mxCell id="Tbsx-RKo1DydP4l0b-6E-48" value="Access Groups&lt;br&gt;Managed by Dev Managers" style="text;html=1;strokeColor=none;fillColor=none;align=center;verticalAlign=middle;whiteSpace=wrap;rounded=0;fontSize=18;" vertex="1" parent="Tbsx-RKo1DydP4l0b-6E-50">
          <mxGeometry x="7.5" y="68.19" width="247" height="20" as="geometry" />
        </mxCell>
      </root>
    </mxGraphModel>
  </diagram>
</mxfile>
